<?xml version="1.0" encoding="UTF-8" standalone="no"?>
<!-- Created with Inkscape (http://www.inkscape.org/) -->

<svg
   xmlns:dc="http://purl.org/dc/elements/1.1/"
   xmlns:cc="http://creativecommons.org/ns#"
   xmlns:rdf="http://www.w3.org/1999/02/22-rdf-syntax-ns#"
   xmlns:svg="http://www.w3.org/2000/svg"
   xmlns="http://www.w3.org/2000/svg"
   xmlns:sodipodi="http://sodipodi.sourceforge.net/DTD/sodipodi-0.dtd"
   xmlns:inkscape="http://www.inkscape.org/namespaces/inkscape"
   width="48"
   height="48"
   viewBox="0 0 12.700001 12.700001"
   version="1.1"
   id="svg825"
   inkscape:version="0.92.4 (5da689c313, 2019-01-14)"
   sodipodi:docname="emblem-synchronizing.svg">
  <defs
     id="defs819" />
  <sodipodi:namedview
     id="base"
     pagecolor="#ffffff"
     bordercolor="#666666"
     borderopacity="1.0"
     inkscape:pageopacity="0.0"
     inkscape:pageshadow="2"
     inkscape:zoom="11.2"
     inkscape:cx="9.581652"
     inkscape:cy="30.338324"
     inkscape:document-units="px"
     inkscape:current-layer="layer1"
     showgrid="false"
     units="px"
     inkscape:object-paths="false"
     inkscape:snap-object-midpoints="true"
     inkscape:snap-midpoints="true"
     inkscape:snap-page="true"
     inkscape:window-width="1920"
     inkscape:window-height="1017"
     inkscape:window-x="-8"
     inkscape:window-y="-8"
     inkscape:window-maximized="1" />
  <metadata
     id="metadata822">
    <rdf:RDF>
      <cc:Work
         rdf:about="">
        <dc:format>image/svg+xml</dc:format>
        <dc:type
           rdf:resource="http://purl.org/dc/dcmitype/StillImage" />
        <dc:title></dc:title>
      </cc:Work>
    </rdf:RDF>
  </metadata>
  <g
     inkscape:label="Layer 1"
     inkscape:groupmode="layer"
     id="layer1"
     transform="translate(0,-284.3)">
    <rect
       style="opacity:1;fill:#00f213;fill-opacity:1;fill-rule:nonzero;stroke:none;stroke-width:0.80384684;stroke-linecap:square;stroke-miterlimit:4;stroke-dasharray:none;stroke-opacity:1;paint-order:normal"
       id="rect1402"
       width="10.583334"
       height="10.583334"
       x="1.0583335"
       y="285.35834" />
    <path
       style="opacity:1;fill:#f5f5f5;fill-opacity:1;fill-rule:nonzero;stroke:none;stroke-width:0.2908372;stroke-linecap:square;stroke-miterlimit:4;stroke-dasharray:none;stroke-opacity:1;paint-order:normal"
       d="m 3.8347662,288.13437 a 3.5575619,3.5575619 0 0 0 -0.00843,5.02203 l 0.134553,-0.13376 -0.7402705,0.74027 2.2059536,0.59126 -0.5912573,-2.20596 -0.606114,0.60611 c -0.5483236,-0.55276 -0.8667983,-1.32608 -0.8667942,-2.10472 -1.3e-6,-0.78245 0.3211704,-1.55988 0.8744274,-2.11317 0.464465,-0.46443 1.0872676,-0.76248 1.7380075,-0.84712 l -0.07149,-0.56714 a 3.5575619,3.5575619 0 0 0 -2.0685839,1.0122 z m 3.438665,-1.18853 0.5912471,2.20514 0.606114,-0.60612 c 0.5483336,0.55277 0.8667984,1.32609 0.8668018,2.10474 -6.4e-6,0.78244 -0.3211704,1.55988 -0.8744274,2.11316 -0.4644648,0.46444 -1.0872752,0.76247 -1.738015,0.84711 l 0.071498,0.56716 a 3.5575619,3.5575619 0 0 0 2.06898,-1.0118 3.5575619,3.5575619 0 0 0 0.00804,-5.02163 l -0.2016102,0.20006 0.8069469,-0.80694 z"
       id="path1373"
       inkscape:connector-curvature="0" />
  </g>
</svg>
