<?xml version="1.0" encoding="UTF-8" standalone="no"?>
<!DOCTYPE svg PUBLIC "-//W3C//DTD SVG 1.1//EN" "http://www.w3.org/Graphics/SVG/1.1/DTD/svg11.dtd">
<svg width="100%" height="100%" viewBox="0 0 48 48" version="1.1" xmlns="http://www.w3.org/2000/svg" xmlns:xlink="http://www.w3.org/1999/xlink" xml:space="preserve" xmlns:serif="http://www.serif.com/" style="fill-rule:evenodd;clip-rule:evenodd;stroke-linejoin:round;stroke-miterlimit:2;">
    <g transform="matrix(1,0,0,1,0.518424,-0.208386)">
        <path d="M23.482,4.208C34.52,4.208 43.482,13.17 43.482,24.208C43.482,35.247 34.52,44.208 23.482,44.208C12.443,44.208 3.482,35.247 3.482,24.208C3.482,13.17 12.443,4.208 23.482,4.208ZM35.47,16.419L15.692,36.197C17.934,37.657 20.609,38.506 23.482,38.506C31.372,38.506 37.779,32.099 37.779,24.208C37.779,21.336 36.93,18.661 35.47,16.419ZM31.641,12.47C29.327,10.857 26.514,9.911 23.482,9.911C15.591,9.911 9.184,16.317 9.184,24.208C9.184,27.241 10.13,30.054 11.743,32.368L31.641,12.47Z" style="fill:rgb(223,223,223);"/>
    </g>
</svg>
