<?xml version="1.0" encoding="UTF-8" standalone="no"?>
<!DOCTYPE svg PUBLIC "-//W3C//DTD SVG 1.1//EN" "http://www.w3.org/Graphics/SVG/1.1/DTD/svg11.dtd">
<svg width="100%" height="100%" viewBox="0 0 48 48" version="1.1" xmlns="http://www.w3.org/2000/svg" xmlns:xlink="http://www.w3.org/1999/xlink" xml:space="preserve" xmlns:serif="http://www.serif.com/" style="fill-rule:evenodd;clip-rule:evenodd;stroke-linejoin:round;stroke-miterlimit:2;">
    <g transform="matrix(1,0,0,1,-7.10543e-15,1.2249)">
        <path d="M39,42.775L9,42.775C6.24,42.775 4,40.535 4,37.775L4,7.775C4,5.016 6.24,2.775 9,2.775L39,2.775C41.76,2.775 44,5.016 44,7.775L44,37.775C44,40.535 41.76,42.775 39,42.775ZM29.229,30.743C29.38,31.55 29.68,32.197 30.129,32.682C30.806,33.413 31.822,33.778 33.176,33.778C34.638,33.778 35.756,33.287 36.528,32.304C37.301,31.322 37.688,29.794 37.688,27.721L37.688,22.113C37.688,18.901 37.176,16.22 36.151,14.069C35.126,11.918 33.605,10.306 31.585,9.234C29.566,8.161 27.059,7.625 24.063,7.625C21.019,7.625 18.485,8.158 16.46,9.225C14.434,10.291 12.913,11.897 11.894,14.042C10.875,16.187 10.354,18.877 10.33,22.113C10.318,22.928 10.312,23.742 10.312,24.557L10.312,27.002C10.312,29.986 10.818,32.466 11.831,34.443C12.844,36.421 14.368,37.904 16.406,38.892C18.443,39.881 20.995,40.375 24.063,40.375L29.419,40.375L29.419,38.236L24.063,38.236C21.486,38.236 19.347,37.823 17.646,36.996C15.944,36.169 14.668,34.923 13.817,33.257C12.966,31.591 12.541,29.506 12.541,27.002L12.541,24.539C12.541,23.724 12.547,22.916 12.559,22.113C12.583,19.333 13.023,17.023 13.88,15.183C14.737,13.344 16.01,11.966 17.7,11.049C19.389,10.132 21.51,9.674 24.063,9.674C26.555,9.674 28.649,10.135 30.345,11.058C32.041,11.981 33.317,13.365 34.174,15.21C35.031,17.056 35.459,19.356 35.459,22.113L35.459,28.08C35.459,29.362 35.288,30.291 34.947,30.866C34.605,31.442 34.057,31.729 33.302,31.729C32.583,31.729 32.047,31.424 31.693,30.812C31.34,30.201 31.163,29.273 31.163,28.026L31.163,28.458L31.163,28.026L31.163,22.652C31.163,19.944 30.57,17.922 29.383,16.585C28.197,15.249 26.406,14.581 24.009,14.581C22.205,14.581 20.742,14.96 19.62,15.717L19.598,15.732C19.563,15.756 19.529,15.78 19.494,15.804L19.46,15.829L19.456,15.832C19.415,15.862 19.375,15.893 19.335,15.924C19.31,15.943 19.286,15.962 19.262,15.981C19.215,16.019 19.169,16.057 19.123,16.096C19.068,16.143 19.015,16.192 18.962,16.241C18.937,16.265 18.911,16.289 18.886,16.313L18.856,16.343C18.836,16.362 18.817,16.382 18.797,16.402C18.739,16.462 18.681,16.523 18.626,16.585C18.472,16.757 18.329,16.94 18.196,17.134L18.182,17.154L18.162,17.183C18.14,17.215 18.119,17.248 18.097,17.282L18.087,17.298L18.083,17.304C18.053,17.351 18.023,17.399 17.995,17.447L17.973,17.484L17.972,17.484C17.955,17.513 17.939,17.542 17.922,17.571L17.907,17.598L17.888,17.632C17.848,17.704 17.81,17.777 17.772,17.852L17.761,17.874L17.753,17.89C17.142,19.123 16.837,20.704 16.837,22.634L16.837,25.726C16.837,28.41 17.361,30.423 18.41,31.765C18.694,32.129 19.017,32.443 19.379,32.709L19.389,32.716C20.362,33.424 21.614,33.778 23.146,33.778C23.404,33.778 23.654,33.772 23.896,33.76L23.92,33.759C24.176,33.745 24.423,33.725 24.662,33.697L24.675,33.696L24.749,33.687C24.871,33.672 24.99,33.655 25.107,33.637L25.114,33.636L25.122,33.634C25.309,33.604 25.491,33.569 25.667,33.53L25.668,33.529C25.926,33.471 26.17,33.403 26.402,33.325L26.427,33.316L26.456,33.306L26.487,33.295L26.523,33.282C26.606,33.252 26.688,33.221 26.768,33.188C26.837,33.16 26.905,33.13 26.971,33.1L26.997,33.088L27.038,33.069C27.159,33.012 27.275,32.951 27.386,32.887L27.411,32.873L27.452,32.848L27.46,32.844C27.46,32.844 27.499,32.82 27.499,32.82L27.505,32.817L27.509,32.814L27.518,32.808L27.538,32.796L27.549,32.789L27.557,32.784L27.564,32.779L27.576,32.772L27.595,32.76L27.604,32.754L27.608,32.751L27.614,32.748L27.649,32.724L27.651,32.723L27.651,32.723C27.666,32.714 27.68,32.704 27.694,32.694L27.697,32.692L27.707,32.685L27.726,32.672L27.736,32.665L27.743,32.66L27.751,32.655L27.762,32.647L27.779,32.634L27.788,32.628L27.793,32.625L27.798,32.621L27.83,32.598L27.833,32.595L27.834,32.595C27.847,32.585 27.86,32.575 27.874,32.565L27.877,32.562L27.886,32.556L27.905,32.541L27.914,32.534L27.921,32.529L27.928,32.523L27.939,32.514L27.955,32.502L27.964,32.495L27.968,32.491L27.974,32.487L28.002,32.464L28.006,32.46L28.007,32.46C28.02,32.449 28.032,32.439 28.045,32.428L28.048,32.425L28.056,32.418L28.074,32.403L28.083,32.395L28.089,32.39L28.096,32.384L28.107,32.374L28.122,32.361L28.13,32.354L28.134,32.35L28.14,32.345L28.165,32.322L28.17,32.318L28.171,32.317C28.183,32.306 28.195,32.295 28.207,32.284L28.21,32.281L28.218,32.273L28.235,32.257L28.243,32.249L28.249,32.244L28.256,32.237L28.266,32.227L28.279,32.214L28.287,32.206L28.292,32.202L28.297,32.197L28.319,32.174L28.325,32.168L28.326,32.167C28.338,32.156 28.349,32.144 28.36,32.132L28.363,32.13L28.37,32.121L28.387,32.104L28.394,32.096L28.399,32.091L28.406,32.083L28.416,32.072L28.428,32.06L28.436,32.051L28.44,32.046L28.445,32.041L28.465,32.019L28.471,32.011L28.473,32.01C28.483,31.998 28.494,31.986 28.504,31.974L28.506,31.971L28.514,31.961L28.529,31.944L28.536,31.936L28.541,31.93L28.548,31.921L28.557,31.911L28.567,31.898L28.575,31.889L28.579,31.883L28.584,31.877L28.601,31.856L28.608,31.847L28.61,31.845C28.62,31.833 28.629,31.82 28.639,31.808L28.641,31.805L28.649,31.794L28.663,31.776L28.668,31.769L28.673,31.762L28.681,31.752L28.689,31.741L28.698,31.729L28.705,31.719L28.71,31.712L28.714,31.707L28.728,31.687L28.736,31.675L28.738,31.673C28.747,31.66 28.756,31.647 28.765,31.635L28.767,31.631L28.776,31.618L28.788,31.601L28.792,31.594L28.797,31.587L28.804,31.576L28.812,31.565L28.819,31.553L28.827,31.542L28.831,31.534L28.835,31.528L28.846,31.511L28.855,31.496L28.858,31.493C28.866,31.48 28.874,31.467 28.881,31.454L28.884,31.45L28.894,31.434L28.903,31.418L28.906,31.413L28.912,31.404L28.919,31.391L28.925,31.381L28.931,31.371L28.939,31.357L28.944,31.348L28.947,31.343L28.955,31.329L28.966,31.31L28.968,31.305L28.968,31.305L28.973,31.296L28.992,31.262L29.003,31.241L29.01,31.228L29.012,31.224L29.017,31.214L29.026,31.198L29.03,31.189L29.034,31.181L29.042,31.166L29.048,31.154L29.05,31.15L29.055,31.14C29.072,31.106 29.088,31.073 29.104,31.039L29.107,31.031L29.108,31.029L29.114,31.017L29.123,30.997L29.126,30.991L29.128,30.985L29.137,30.967L29.143,30.953L29.144,30.95L29.146,30.944C29.169,30.893 29.191,30.841 29.211,30.788L29.212,30.785L29.213,30.783L29.222,30.76L29.229,30.743ZM21.424,17.393C22.111,17.004 22.961,16.81 23.973,16.81C25.579,16.81 26.777,17.277 27.568,18.212C28.359,19.147 28.754,20.555 28.754,22.436L28.754,25.869C28.754,27.175 28.569,28.254 28.198,29.106C28.187,29.13 28.176,29.155 28.165,29.179L28.141,29.23L28.129,29.257L28.115,29.287L28.092,29.332L28.087,29.342L28.062,29.392C28.046,29.423 28.029,29.454 28.013,29.484C27.97,29.561 27.926,29.636 27.881,29.709C27.819,29.807 27.754,29.901 27.686,29.99L27.677,30.003C27.671,30.011 27.665,30.018 27.659,30.026C27.641,30.049 27.623,30.072 27.605,30.094C27.594,30.107 27.583,30.12 27.572,30.133L27.568,30.138C27.555,30.154 27.541,30.17 27.527,30.186L27.512,30.204L27.493,30.225L27.473,30.246C27.326,30.409 27.164,30.556 26.99,30.689C26.96,30.711 26.929,30.734 26.898,30.756L26.875,30.772L26.859,30.783L26.852,30.788L26.828,30.805L26.808,30.818L26.804,30.82L26.78,30.836L26.756,30.852C26.748,30.857 26.74,30.862 26.732,30.867L26.707,30.883C26.597,30.951 26.482,31.013 26.363,31.071L26.349,31.078C25.971,31.259 25.546,31.389 25.077,31.465L25.035,31.472L25.034,31.472C24.703,31.524 24.349,31.549 23.973,31.549C22.391,31.549 21.208,31.079 20.423,30.138C19.638,29.198 19.246,27.775 19.246,25.869L19.246,22.454C19.246,21.113 19.446,20.01 19.847,19.147C19.879,19.078 19.912,19.01 19.947,18.944C20.136,18.584 20.362,18.27 20.627,18.002C20.638,17.991 20.649,17.98 20.659,17.969C20.689,17.94 20.719,17.911 20.749,17.883L20.762,17.871L20.77,17.864L20.783,17.852L20.802,17.835C20.855,17.789 20.908,17.744 20.964,17.7C20.998,17.673 21.033,17.647 21.068,17.621C21.175,17.543 21.288,17.47 21.405,17.403L21.424,17.393ZM29.275,30.616L29.271,30.627L29.276,30.613L29.275,30.616ZM29.289,30.574L29.286,30.584L29.293,30.563L29.289,30.574ZM29.304,30.531L29.302,30.537L29.31,30.511L29.304,30.531ZM29.332,30.442C29.327,30.457 29.322,30.473 29.317,30.488L29.332,30.442ZM29.344,30.4L29.338,30.423L29.347,30.391L29.344,30.4ZM29.357,30.356L29.353,30.371L29.362,30.338L29.357,30.356ZM29.37,30.312L29.368,30.319L29.379,30.277L29.37,30.312ZM29.395,30.217C29.391,30.234 29.386,30.251 29.382,30.268L29.395,30.217ZM29.405,30.177L29.399,30.201L29.408,30.164L29.405,30.177ZM29.416,30.131L29.413,30.146L29.422,30.109L29.416,30.131ZM29.447,30.031L29.437,30.04C29.433,30.057 29.429,30.075 29.425,30.093L29.437,30.04L29.447,30.031Z" style="fill:rgb(223,223,223);"/>
    </g>
</svg>
