<?xml version="1.0" encoding="UTF-8" standalone="no"?>
<!DOCTYPE svg PUBLIC "-//W3C//DTD SVG 1.1//EN" "http://www.w3.org/Graphics/SVG/1.1/DTD/svg11.dtd">
<svg width="100%" height="100%" viewBox="0 0 48 48" version="1.1" xmlns="http://www.w3.org/2000/svg" xmlns:xlink="http://www.w3.org/1999/xlink" xml:space="preserve" xmlns:serif="http://www.serif.com/" style="fill-rule:evenodd;clip-rule:evenodd;stroke-linejoin:round;stroke-miterlimit:1;">
    <g transform="matrix(1,0,0,1,-0.129457,0.319655)">
        <g transform="matrix(1.01024,0,0,0.971704,-0.451755,0.104139)">
            <rect x="4.535" y="3.68" width="39.595" height="41.165" style="fill:none;stroke:rgb(223,223,223);stroke-width:2.02px;"/>
        </g>
        <g transform="matrix(1,0,0,1,0,-2.11627)">
            <path d="M4.129,13.442L44.129,13.442" style="fill:none;stroke:rgb(223,223,223);stroke-width:2px;stroke-linecap:round;"/>
        </g>
    </g>
    <path d="M39.556,32.011C43.851,32.011 47.338,35.498 47.338,39.793C47.338,44.089 43.851,47.576 39.556,47.576C35.26,47.576 31.773,44.089 31.773,39.793C31.773,35.498 35.26,32.011 39.556,32.011ZM39.556,33.172C43.21,33.172 46.177,36.139 46.177,39.793C46.177,43.448 43.21,46.415 39.556,46.415C35.901,46.415 32.934,43.448 32.934,39.793C32.934,36.139 35.901,33.172 39.556,33.172Z" style="fill:rgb(223,223,223);"/>
    <g transform="matrix(12.6887,0,0,12.6887,36.1728,43.9445)">
        <path d="M0.465,-0.36L0.465,-0.294L0.068,-0.294L0.068,-0.36L0.465,-0.36ZM0.302,-0.129L0.231,-0.129L0.231,-0.525L0.302,-0.525L0.302,-0.129Z" style="fill:rgb(223,223,223);fill-rule:nonzero;"/>
    </g>
</svg>
