<?xml version="1.0" encoding="UTF-8" standalone="no"?>
<!DOCTYPE svg PUBLIC "-//W3C//DTD SVG 1.1//EN" "http://www.w3.org/Graphics/SVG/1.1/DTD/svg11.dtd">
<svg width="100%" height="100%" viewBox="0 0 48 48" version="1.1" xmlns="http://www.w3.org/2000/svg" xmlns:xlink="http://www.w3.org/1999/xlink" xml:space="preserve" xmlns:serif="http://www.serif.com/" style="fill-rule:evenodd;clip-rule:evenodd;stroke-linecap:round;stroke-miterlimit:1.5;">
    <g transform="matrix(1.04167,0,0,1.04167,5.12515,5.3272)">
        <g>
            <g transform="matrix(1,0,0,1,-10.9909,-9.6256)">
                <path d="M18.709,31.121C14.579,29.25 11.703,25.09 11.703,20.264C11.703,13.689 17.041,8.351 23.615,8.351C30.19,8.351 35.528,13.689 35.528,20.264C35.528,25.136 32.597,29.328 28.405,31.173L34.538,37.126L12.522,37.126L18.709,31.121Z" style="fill:none;stroke:rgb(50,50,50);stroke-opacity:0.46;stroke-width:1.92px;"/>
            </g>
            <g transform="matrix(0.441261,0,0,0.441261,2.59548,0.4014)">
                <circle cx="22.728" cy="23.199" r="11.913" style="fill:none;stroke:rgb(51,51,51);stroke-opacity:0.46;stroke-width:4.35px;"/>
            </g>
        </g>
        <g>
            <g>
                <path d="M18.709,31.121C14.579,29.25 11.703,25.09 11.703,20.264C11.703,13.689 17.041,8.351 23.615,8.351C30.19,8.351 35.528,13.689 35.528,20.264C35.528,25.136 32.597,29.328 28.405,31.173L34.538,37.126L12.522,37.126L18.709,31.121Z" style="fill:none;stroke:rgb(223,223,223);stroke-width:1.92px;"/>
            </g>
            <g transform="matrix(0.441261,0,0,0.441261,13.5864,10.027)">
                <circle cx="22.728" cy="23.199" r="11.913" style="fill:none;stroke:rgb(223,223,223);stroke-width:4.35px;"/>
            </g>
        </g>
    </g>
</svg>
