<?xml version="1.0" encoding="UTF-8" standalone="no"?>
<!-- Created with Inkscape (http://www.inkscape.org/) -->

<svg
   xmlns:dc="http://purl.org/dc/elements/1.1/"
   xmlns:cc="http://creativecommons.org/ns#"
   xmlns:rdf="http://www.w3.org/1999/02/22-rdf-syntax-ns#"
   xmlns:svg="http://www.w3.org/2000/svg"
   xmlns="http://www.w3.org/2000/svg"
   xmlns:sodipodi="http://sodipodi.sourceforge.net/DTD/sodipodi-0.dtd"
   xmlns:inkscape="http://www.inkscape.org/namespaces/inkscape"
   width="48"
   height="48"
   viewBox="0 0 12.7 12.7"
   version="1.1"
   id="svg8"
   inkscape:version="0.92.4 (5da689c313, 2019-01-14)"
   sodipodi:docname="audio-headphones.svg"
   inkscape:export-filename="G:\projects\silicons\Silicons\src\48x48\audio-headphones.png"
   inkscape:export-xdpi="96"
   inkscape:export-ydpi="96">
  <defs
     id="defs2" />
  <sodipodi:namedview
     id="base"
     pagecolor="#ffffff"
     bordercolor="#666666"
     borderopacity="1.0"
     inkscape:pageopacity="0.0"
     inkscape:pageshadow="2"
     inkscape:zoom="11.2"
     inkscape:cx="24.951998"
     inkscape:cy="25.282529"
     inkscape:document-units="mm"
     inkscape:current-layer="layer1"
     showgrid="false"
     units="px"
     inkscape:snap-page="true"
     inkscape:snap-midpoints="true"
     showguides="false"
     inkscape:lockguides="true"
     inkscape:window-width="1920"
     inkscape:window-height="1017"
     inkscape:window-x="-8"
     inkscape:window-y="-8"
     inkscape:window-maximized="1"
     inkscape:snap-to-guides="true" />
  <metadata
     id="metadata5">
    <rdf:RDF>
      <cc:Work
         rdf:about="">
        <dc:format>image/svg+xml</dc:format>
        <dc:type
           rdf:resource="http://purl.org/dc/dcmitype/StillImage" />
        <dc:title></dc:title>
      </cc:Work>
    </rdf:RDF>
  </metadata>
  <g
     inkscape:label="Layer 1"
     inkscape:groupmode="layer"
     id="layer1"
     transform="translate(0,-284.29998)">
    <g
       id="g4775"
       transform="matrix(1.7656712,0,0,1.7656712,-5.5711042,-222.91713)">
      <path
         style="fill:none;stroke:none;stroke-width:0.19672292px;stroke-linecap:butt;stroke-linejoin:miter;stroke-opacity:1"
         d="m 9.0328744,290.80631 v 2.19085"
         id="path4602"
         inkscape:connector-curvature="0" />
      <path
         transform="scale(1,-1)"
         d="m 8.551087,-290.60968 a 1.7994877,1.7994877 0 0 1 -0.8997439,1.5584 1.7994877,1.7994877 0 0 1 -1.7994877,0 1.7994877,1.7994877 0 0 1 -0.8997438,-1.5584"
         sodipodi:open="true"
         sodipodi:end="3.1415927"
         sodipodi:start="0"
         sodipodi:ry="1.7994877"
         sodipodi:rx="1.7994877"
         sodipodi:cy="-290.60968"
         sodipodi:cx="6.7515993"
         sodipodi:type="arc"
         id="path4760"
         style="opacity:1;fill:none;fill-opacity:1;fill-rule:nonzero;stroke:#818181;stroke-width:0.36500001;stroke-linecap:square;stroke-miterlimit:4;stroke-dasharray:none;stroke-opacity:1;paint-order:normal" />
      <g
         id="g4754">
        <circle
           r="0.53582847"
           cy="291.90173"
           cx="-9.0328741"
           id="circle4598"
           style="opacity:1;fill:#2c2c2c;fill-opacity:1;fill-rule:nonzero;stroke:none;stroke-width:0.19672292;stroke-linecap:square;stroke-miterlimit:4;stroke-dasharray:none;stroke-opacity:1;paint-order:normal"
           transform="scale(-1,1)" />
        <path
           sodipodi:nodetypes="cccccccc"
           inkscape:connector-curvature="0"
           id="path4600"
           d="m 8.5587414,290.70795 c 0.1631026,7e-5 0.3244624,0.0335 0.474133,0.0984 v 1.09542 1.09542 c -0.1495868,0.0652 -0.3109501,0.0991 -0.474133,0.0995 -0.2675369,-2e-5 -0.5273207,-0.0899 -0.737711,-0.25513 v -1.87693 c 0.210189,-0.16582 0.4699917,-0.25621 0.737711,-0.25667 z"
           style="opacity:1;fill:#9d9d9d;fill-opacity:1;fill-rule:nonzero;stroke:none;stroke-width:0.19672292;stroke-linecap:square;stroke-miterlimit:4;stroke-dasharray:none;stroke-opacity:1;paint-order:normal" />
        <path
           inkscape:connector-curvature="0"
           id="path4604"
           d="m 8.5587415,290.70795 c 0.028041,2e-5 0.055873,0.002 0.083761,0.004 h -0.133326 c 0.016629,-7.2e-4 0.032865,-0.004 0.049565,-0.004 z m -0.3292804,0.0503 v 2.28806 c -0.1468884,-0.0423 -0.2865867,-0.10908 -0.4084307,-0.20479 v -1.87694 c 0.1218435,-0.0961 0.2613658,-0.16372 0.4084307,-0.20633 z"
           style="opacity:1;fill:#818181;fill-opacity:1;fill-rule:nonzero;stroke:none;stroke-width:0.19672292;stroke-linecap:square;stroke-miterlimit:4;stroke-dasharray:none;stroke-opacity:1;paint-order:normal" />
      </g>
      <g
         transform="matrix(0.74351977,0,0,0.74351977,2.3624687,74.870663)"
         id="g4572">
        <path
           style="fill:none;stroke:none;stroke-width:0.26458332px;stroke-linecap:butt;stroke-linejoin:miter;stroke-opacity:1"
           d="m 2.8349691,290.42312 v 2.94659"
           id="path4559"
           inkscape:connector-curvature="0" />
        <g
           id="g4674">
          <g
             id="g4736">
            <circle
               style="opacity:1;fill:#2c2c2c;fill-opacity:1;fill-rule:nonzero;stroke:none;stroke-width:0.26458332;stroke-linecap:square;stroke-miterlimit:4;stroke-dasharray:none;stroke-opacity:1;paint-order:normal"
               id="path4561"
               cx="2.834969"
               cy="291.89642"
               r="0.72066474" />
            <path
               style="opacity:1;fill:#9d9d9d;fill-opacity:1;fill-rule:nonzero;stroke:none;stroke-width:0.99999994;stroke-linecap:square;stroke-miterlimit:4;stroke-dasharray:none;stroke-opacity:1;paint-order:normal"
               d="m 13.125,22.642578 c -0.829098,3.56e-4 -1.649337,0.170519 -2.410156,0.5 v 5.568359 5.56836 c 0.760393,0.331493 1.58065,0.503654 2.410156,0.505859 1.359968,-1.01e-4 2.680525,-0.456794 3.75,-1.296875 v -9.541015 c -1.068452,-0.842882 -2.389105,-1.30236 -3.75,-1.304688 z"
               id="path4518"
               inkscape:connector-curvature="0"
               sodipodi:nodetypes="cccccccc"
               transform="matrix(0.26458333,0,0,0.26458333,0,284.29998)" />
            <path
               style="opacity:1;fill:#818181;fill-opacity:1;fill-rule:nonzero;stroke:none;stroke-width:0.26458332;stroke-linecap:square;stroke-miterlimit:4;stroke-dasharray:none;stroke-opacity:1;paint-order:normal"
               d="m 3.4726562,290.29083 c -0.037714,2e-5 -0.075147,0.003 -0.1126546,0.006 h 0.1793172 c -0.022365,-9.7e-4 -0.044202,-0.006 -0.066663,-0.006 z m 0.442867,0.0677 v 3.07734 c 0.1975582,-0.0569 0.385446,-0.14671 0.5493205,-0.27544 v -2.52439 c -0.1638739,-0.12928 -0.3515249,-0.2202 -0.5493205,-0.27751 z"
               id="path4563"
               inkscape:connector-curvature="0" />
          </g>
        </g>
      </g>
    </g>
  </g>
</svg>
