<?xml version="1.0" encoding="UTF-8" standalone="no"?>
<!DOCTYPE svg PUBLIC "-//W3C//DTD SVG 1.1//EN" "http://www.w3.org/Graphics/SVG/1.1/DTD/svg11.dtd">
<svg width="100%" height="100%" viewBox="0 0 48 48" version="1.1" xmlns="http://www.w3.org/2000/svg" xmlns:xlink="http://www.w3.org/1999/xlink" xml:space="preserve" xmlns:serif="http://www.serif.com/" style="fill-rule:evenodd;clip-rule:evenodd;stroke-linejoin:round;stroke-miterlimit:2;">
    <g transform="matrix(1.26519,0,0,1.26519,-5.78574,-2.58354)">
        <g transform="matrix(1,0,0,1,0,0.426464)">
            <g>
                <g transform="matrix(1,0,0,1,1.037,0)">
                    <path d="M38.302,27.507L31.349,27.507L31.349,30.313L14.577,30.313L14.577,27.507L7.624,27.507L7.624,13.54L38.302,13.54L38.302,27.507Z" style="fill:rgb(128,201,133);"/>
                </g>
                <rect x="15.614" y="30.313" width="16.772" height="0.366" style="fill:rgb(253,255,68);"/>
            </g>
            <g transform="matrix(1,0,0,1,1.28079,0)">
                <g transform="matrix(1,0,0,1,-0.274303,-0.0289632)">
                    <g transform="matrix(1,0,0,1,-0.121982,-0.426938)">
                        <rect x="18.419" y="16.59" width="9.393" height="9.393" style="fill:rgb(44,44,44);"/>
                    </g>
                    <g>
                        <g transform="matrix(1,0,0,1,0,0.853875)">
                            <rect x="18.907" y="19.029" width="0.305" height="1.586" style="fill:white;"/>
                        </g>
                        <g transform="matrix(1,0,0,2.84615,0.853876,-35.7408)">
                            <rect x="18.907" y="19.029" width="0.305" height="1.586" style="fill:white;"/>
                        </g>
                        <g transform="matrix(1,0,0,4.07692,1.70775,-60.1372)">
                            <rect x="18.907" y="19.029" width="0.305" height="1.586" style="fill:white;"/>
                        </g>
                        <g transform="matrix(1,0,0,2.84615,2.56163,-35.7408)">
                            <rect x="18.907" y="19.029" width="0.305" height="1.586" style="fill:white;"/>
                        </g>
                        <g transform="matrix(1,0,0,1.53846,3.4155,-9.81957)">
                            <rect x="18.907" y="19.029" width="0.305" height="1.586" style="fill:white;"/>
                        </g>
                        <g transform="matrix(1,0,0,0.615385,4.26938,8.47776)">
                            <rect x="18.907" y="19.029" width="0.305" height="1.586" style="fill:white;"/>
                        </g>
                        <g transform="matrix(1,0,0,1.53846,5.12325,-9.81957)">
                            <rect x="18.907" y="19.029" width="0.305" height="1.586" style="fill:white;"/>
                        </g>
                        <g transform="matrix(1,0,0,3.23077,5.97713,-43.3647)">
                            <rect x="18.907" y="19.029" width="0.305" height="1.586" style="fill:white;"/>
                        </g>
                        <g transform="matrix(1,0,0,3.92308,7.68488,-57.0877)">
                            <rect x="18.907" y="19.029" width="0.305" height="1.586" style="fill:white;"/>
                        </g>
                        <g transform="matrix(1,0,0,4.76923,6.831,-73.8602)">
                            <rect x="18.907" y="19.029" width="0.305" height="1.586" style="fill:white;"/>
                        </g>
                    </g>
                </g>
                <g transform="matrix(1,0,0,1,0.000929182,0)">
                    <g transform="matrix(0.411023,0,0,0.411023,12.6595,11.5443)">
                        <circle cx="12.732" cy="9.56" r="0.351"/>
                    </g>
                    <g transform="matrix(0.411023,0,0,0.411023,13.4324,11.5443)">
                        <circle cx="12.732" cy="9.56" r="0.351"/>
                    </g>
                    <g transform="matrix(0.411023,0,0,0.411023,21.9349,11.5443)">
                        <circle cx="12.732" cy="9.56" r="0.351"/>
                    </g>
                    <g transform="matrix(0.411023,0,0,0.411023,21.1619,11.5443)">
                        <circle cx="12.732" cy="9.56" r="0.351"/>
                    </g>
                    <g transform="matrix(0.411023,0,0,0.411023,14.9783,11.5443)">
                        <circle cx="12.732" cy="9.56" r="0.351"/>
                    </g>
                    <g transform="matrix(0.411023,0,0,0.411023,14.2054,11.4942)">
                        <circle cx="12.732" cy="9.56" r="0.351"/>
                    </g>
                    <g transform="matrix(0.411023,0,0,0.411023,15.7513,11.5443)">
                        <circle cx="12.732" cy="9.56" r="0.351"/>
                    </g>
                    <g transform="matrix(0.411023,0,0,0.411023,16.5242,11.5443)">
                        <circle cx="12.732" cy="9.56" r="0.351"/>
                    </g>
                    <g transform="matrix(0.411023,0,0,0.411023,17.2972,11.5443)">
                        <circle cx="12.732" cy="9.56" r="0.351"/>
                    </g>
                    <g transform="matrix(0.411023,0,0,0.411023,18.0701,11.5443)">
                        <circle cx="12.732" cy="9.56" r="0.351"/>
                    </g>
                    <g transform="matrix(0.411023,0,0,0.411023,18.8431,11.5443)">
                        <circle cx="12.732" cy="9.56" r="0.351"/>
                    </g>
                    <g transform="matrix(0.411023,0,0,0.411023,19.616,11.5443)">
                        <circle cx="12.732" cy="9.56" r="0.351"/>
                    </g>
                    <g transform="matrix(0.411023,0,0,0.411023,20.389,11.5443)">
                        <circle cx="12.732" cy="9.56" r="0.351"/>
                    </g>
                    <g transform="matrix(0.411023,0,0,0.411023,13.0355,11.2184)">
                        <circle cx="12.732" cy="9.56" r="0.351"/>
                    </g>
                    <g transform="matrix(0.411023,0,0,0.411023,13.8084,11.2184)">
                        <circle cx="12.732" cy="9.56" r="0.351"/>
                    </g>
                    <g transform="matrix(0.411023,0,0,0.411023,22.3109,11.2184)">
                        <circle cx="12.732" cy="9.56" r="0.351"/>
                    </g>
                    <g transform="matrix(0.411023,0,0,0.411023,21.538,11.2184)">
                        <circle cx="12.732" cy="9.56" r="0.351"/>
                    </g>
                    <g transform="matrix(0.411023,0,0,0.411023,15.3543,11.2184)">
                        <circle cx="12.732" cy="9.56" r="0.351"/>
                    </g>
                    <g transform="matrix(0.411023,0,0,0.411023,14.5814,11.2184)">
                        <circle cx="12.732" cy="9.56" r="0.351"/>
                    </g>
                    <g transform="matrix(0.411023,0,0,0.411023,16.1273,11.2184)">
                        <circle cx="12.732" cy="9.56" r="0.351"/>
                    </g>
                    <g transform="matrix(0.411023,0,0,0.411023,16.9003,11.2184)">
                        <circle cx="12.732" cy="9.56" r="0.351"/>
                    </g>
                    <g transform="matrix(0.411023,0,0,0.411023,17.6732,11.2184)">
                        <circle cx="12.732" cy="9.56" r="0.351"/>
                    </g>
                    <g transform="matrix(0.411023,0,0,0.411023,18.4462,11.2184)">
                        <circle cx="12.732" cy="9.56" r="0.351"/>
                    </g>
                    <g transform="matrix(0.411023,0,0,0.411023,19.2191,11.2184)">
                        <circle cx="12.732" cy="9.56" r="0.351"/>
                    </g>
                    <g transform="matrix(0.411023,0,0,0.411023,19.9921,11.2184)">
                        <circle cx="12.732" cy="9.56" r="0.351"/>
                    </g>
                    <g transform="matrix(0.411023,0,0,0.411023,20.765,11.2184)">
                        <circle cx="12.732" cy="9.56" r="0.351"/>
                    </g>
                </g>
                <g transform="matrix(1,0,0,1,0.000929182,11.0394)">
                    <g transform="matrix(0.411023,0,0,0.411023,12.6595,11.5443)">
                        <circle cx="12.732" cy="9.56" r="0.351"/>
                    </g>
                    <g transform="matrix(0.411023,0,0,0.411023,13.4324,11.5443)">
                        <circle cx="12.732" cy="9.56" r="0.351"/>
                    </g>
                    <g transform="matrix(0.411023,0,0,0.411023,21.9349,11.5443)">
                        <circle cx="12.732" cy="9.56" r="0.351"/>
                    </g>
                    <g transform="matrix(0.411023,0,0,0.411023,21.1619,11.5443)">
                        <circle cx="12.732" cy="9.56" r="0.351"/>
                    </g>
                    <g transform="matrix(0.411023,0,0,0.411023,14.9783,11.5443)">
                        <circle cx="12.732" cy="9.56" r="0.351"/>
                    </g>
                    <g transform="matrix(0.411023,0,0,0.411023,14.2054,11.4942)">
                        <circle cx="12.732" cy="9.56" r="0.351"/>
                    </g>
                    <g transform="matrix(0.411023,0,0,0.411023,15.7513,11.5443)">
                        <circle cx="12.732" cy="9.56" r="0.351"/>
                    </g>
                    <g transform="matrix(0.411023,0,0,0.411023,16.5242,11.5443)">
                        <circle cx="12.732" cy="9.56" r="0.351"/>
                    </g>
                    <g transform="matrix(0.411023,0,0,0.411023,17.2972,11.5443)">
                        <circle cx="12.732" cy="9.56" r="0.351"/>
                    </g>
                    <g transform="matrix(0.411023,0,0,0.411023,18.0701,11.5443)">
                        <circle cx="12.732" cy="9.56" r="0.351"/>
                    </g>
                    <g transform="matrix(0.411023,0,0,0.411023,18.8431,11.5443)">
                        <circle cx="12.732" cy="9.56" r="0.351"/>
                    </g>
                    <g transform="matrix(0.411023,0,0,0.411023,19.616,11.5443)">
                        <circle cx="12.732" cy="9.56" r="0.351"/>
                    </g>
                    <g transform="matrix(0.411023,0,0,0.411023,20.389,11.5443)">
                        <circle cx="12.732" cy="9.56" r="0.351"/>
                    </g>
                    <g transform="matrix(0.411023,0,0,0.411023,13.0355,11.2184)">
                        <circle cx="12.732" cy="9.56" r="0.351"/>
                    </g>
                    <g transform="matrix(0.411023,0,0,0.411023,13.8084,11.2184)">
                        <circle cx="12.732" cy="9.56" r="0.351"/>
                    </g>
                    <g transform="matrix(0.411023,0,0,0.411023,22.3109,11.2184)">
                        <circle cx="12.732" cy="9.56" r="0.351"/>
                    </g>
                    <g transform="matrix(0.411023,0,0,0.411023,21.538,11.2184)">
                        <circle cx="12.732" cy="9.56" r="0.351"/>
                    </g>
                    <g transform="matrix(0.411023,0,0,0.411023,15.3543,11.2184)">
                        <circle cx="12.732" cy="9.56" r="0.351"/>
                    </g>
                    <g transform="matrix(0.411023,0,0,0.411023,14.5814,11.2184)">
                        <circle cx="12.732" cy="9.56" r="0.351"/>
                    </g>
                    <g transform="matrix(0.411023,0,0,0.411023,16.1273,11.2184)">
                        <circle cx="12.732" cy="9.56" r="0.351"/>
                    </g>
                    <g transform="matrix(0.411023,0,0,0.411023,16.9003,11.2184)">
                        <circle cx="12.732" cy="9.56" r="0.351"/>
                    </g>
                    <g transform="matrix(0.411023,0,0,0.411023,17.6732,11.2184)">
                        <circle cx="12.732" cy="9.56" r="0.351"/>
                    </g>
                    <g transform="matrix(0.411023,0,0,0.411023,18.4462,11.2184)">
                        <circle cx="12.732" cy="9.56" r="0.351"/>
                    </g>
                    <g transform="matrix(0.411023,0,0,0.411023,19.2191,11.2184)">
                        <circle cx="12.732" cy="9.56" r="0.351"/>
                    </g>
                    <g transform="matrix(0.411023,0,0,0.411023,19.9921,11.2184)">
                        <circle cx="12.732" cy="9.56" r="0.351"/>
                    </g>
                    <g transform="matrix(0.411023,0,0,0.411023,20.765,11.2184)">
                        <circle cx="12.732" cy="9.56" r="0.351"/>
                    </g>
                </g>
            </g>
        </g>
        <g transform="matrix(1,0,0,1,0.0609911,-1.03685)">
            <rect x="7.685" y="11.954" width="2.074" height="20.188" style="fill:rgb(157,157,157);"/>
        </g>
    </g>
</svg>
