<?xml version="1.0" encoding="UTF-8" standalone="no"?>
<!DOCTYPE svg PUBLIC "-//W3C//DTD SVG 1.1//EN" "http://www.w3.org/Graphics/SVG/1.1/DTD/svg11.dtd">
<svg width="100%" height="100%" viewBox="0 0 48 48" version="1.1" xmlns="http://www.w3.org/2000/svg" xmlns:xlink="http://www.w3.org/1999/xlink" xml:space="preserve" xmlns:serif="http://www.serif.com/" style="fill-rule:evenodd;clip-rule:evenodd;stroke-linejoin:round;stroke-miterlimit:2;">
    <g transform="matrix(1.46391,0,0,1.46391,-11.8036,-6.26272)">
        <g>
            <path d="M30.577,13.015L30.577,14.455L36.042,14.455C37.097,14.529 37.856,15.187 38.039,16.132L35.751,16.132L35.751,28.757L38.039,28.757C37.846,29.726 37.073,30.389 36.042,30.435L12.873,30.435C11.726,30.435 10.795,29.504 10.795,28.357L10.795,16.532C10.795,15.414 11.68,14.502 12.873,14.455L18.257,14.455L18.257,13.015L18.3,12.801L30.534,12.801L30.577,13.015Z" style="fill:rgb(201,201,201);"/>
            <path d="M18.3,12.801C18.37,11.745 19.269,10.91 20.361,10.91L28.473,10.91C29.565,10.91 30.464,11.745 30.534,12.801L18.3,12.801Z" style="fill:rgb(44,44,44);"/>
            <g transform="matrix(1,0,0,1,0,-0.365947)">
                <circle cx="12.742" cy="16.506" r="0.534" style="fill:rgb(221,0,0);"/>
            </g>
            <g transform="matrix(1,0,0,1.40816,0,-9.79538)">
                <path d="M38.039,18.412L38.119,18.696L38.119,27.094L38.039,27.378L35.751,27.378L35.751,18.412L38.039,18.412Z" style="fill:rgb(44,44,44);"/>
            </g>
        </g>
        <g>
            <g transform="matrix(0.950769,0,0,0.950769,0.0167022,0.394612)">
                <circle cx="18.922" cy="23.192" r="4.956" style="fill:rgb(61,146,255);"/>
            </g>
            <g transform="matrix(-0.258819,0.965926,-0.965926,-0.258819,44.3822,10.5841)">
                <path d="M17.992,22.506L13.601,25.25L16.224,27.08L17.992,22.506Z" style="fill:white;fill-opacity:0.09;"/>
            </g>
            <g transform="matrix(0.258819,-0.965926,0.965926,0.258819,-8.21446,33.9394)">
                <path d="M17.992,22.506L13.601,25.25L16.224,27.08L17.992,22.506Z" style="fill:white;fill-opacity:0.09;"/>
            </g>
            <g transform="matrix(0.243077,0,0,0.243077,13.408,16.8073)">
                <circle cx="18.922" cy="23.192" r="4.956" style="fill:rgb(44,44,44);"/>
            </g>
            <path d="M18.008,16.727C21.163,16.727 23.726,19.289 23.726,22.445C23.726,25.601 21.163,28.163 18.008,28.163C14.852,28.163 12.29,25.601 12.29,22.445C12.29,19.289 14.852,16.727 18.008,16.727ZM18.008,17.733C20.608,17.733 22.719,19.844 22.719,22.445C22.719,25.045 20.608,27.156 18.008,27.156C15.407,27.156 13.296,25.045 13.296,22.445C13.296,19.844 15.407,17.733 18.008,17.733Z" style="fill:rgb(44,44,44);"/>
        </g>
    </g>
</svg>
