<?xml version="1.0" encoding="UTF-8" standalone="no"?>
<!DOCTYPE svg PUBLIC "-//W3C//DTD SVG 1.1//EN" "http://www.w3.org/Graphics/SVG/1.1/DTD/svg11.dtd">
<svg width="100%" height="100%" viewBox="0 0 48 48" version="1.1" xmlns="http://www.w3.org/2000/svg" xmlns:xlink="http://www.w3.org/1999/xlink" xml:space="preserve" xmlns:serif="http://www.serif.com/" style="fill-rule:evenodd;clip-rule:evenodd;stroke-linecap:round;stroke-linejoin:round;stroke-miterlimit:1.5;">
    <path d="M35.117,18.625L42.114,15.126L42.114,33.698L35.117,30.199C34.515,31.857 32.924,33.042 31.06,33.042L12.305,33.042C9.923,33.042 7.99,31.108 7.99,28.727L7.99,20.097C7.99,17.715 9.923,15.782 12.305,15.781L31.06,15.781C32.924,15.782 34.515,16.967 35.117,18.625Z" style="fill:rgb(201,201,201);"/>
    <g transform="matrix(0.741538,0,0,1,3.85107,-0.975858)">
        <rect x="11.832" y="19.761" width="19.822" height="11.222" style="fill:rgb(61,146,255);stroke:rgb(44,44,44);stroke-width:0.47px;"/>
    </g>
    <g transform="matrix(1,0,0,1,0,3.72046)">
        <circle cx="30.48" cy="20.783" r="0.595" style="fill:rgb(253,255,68);"/>
    </g>
    <circle cx="30.48" cy="20.783" r="0.595" style="fill:rgb(221,0,0);"/>
    <g transform="matrix(1,0,0,1,0,7.44091)">
        <circle cx="30.48" cy="20.783" r="0.595" style="fill:rgb(40,221,0);"/>
    </g>
    <g transform="matrix(1,0,0,1,-2.34816,0.213469)">
        <path d="M14.943,17.321L18.602,11.1L27.324,11.1L32.905,16.681" style="fill:none;stroke:rgb(201,201,201);stroke-width:2.04px;"/>
    </g>
    <g transform="matrix(1.17544,0,0,1.20938,-4.99708,-2.01084)">
        <path d="M39.522,11.192C39.522,10.704 39.071,10.307 38.515,10.307C38.515,10.307 32.498,9.637 30.415,9.637C28.931,9.637 26.013,10.307 26.013,10.307C25.458,10.307 25.006,10.704 25.006,11.192C25.006,11.68 25.458,12.076 26.013,12.076C26.013,12.076 28.927,12.808 30.415,12.808C32.498,12.808 38.515,12.076 38.515,12.076C39.071,12.076 39.522,11.68 39.522,11.192Z" style="fill:rgb(129,129,129);"/>
    </g>
</svg>
