<?xml version="1.0" encoding="UTF-8" standalone="no"?>
<!-- Created with Inkscape (http://www.inkscape.org/) -->

<svg
   xmlns:dc="http://purl.org/dc/elements/1.1/"
   xmlns:cc="http://creativecommons.org/ns#"
   xmlns:rdf="http://www.w3.org/1999/02/22-rdf-syntax-ns#"
   xmlns:svg="http://www.w3.org/2000/svg"
   xmlns="http://www.w3.org/2000/svg"
   xmlns:sodipodi="http://sodipodi.sourceforge.net/DTD/sodipodi-0.dtd"
   xmlns:inkscape="http://www.inkscape.org/namespaces/inkscape"
   width="48"
   height="48"
   viewBox="0 0 12.7 12.700001"
   version="1.1"
   id="svg7242"
   inkscape:version="0.92.4 (5da689c313, 2019-01-14)"
   sodipodi:docname="media-optical.svg">
  <defs
     id="defs7236">
    <pattern
       patternUnits="userSpaceOnUse"
       width="7.050782"
       height="9.961474"
       patternTransform="matrix(0.26458333,0,0,0.26458333,4.2757079,288.11317)"
       id="pattern7815">
      <path
         style="fill:#818181;fill-opacity:1;stroke:none;stroke-width:1.00337815px;stroke-linecap:butt;stroke-linejoin:miter;stroke-opacity:1"
         d="M 3.664063,0 0,0.76293543 2.447266,9.961474 A 4.05971,4.0871853 0 0 1 3.664063,9.7687181 4.05971,4.0871853 0 0 1 4.609375,9.8866394 L 7.050782,0.71168504 Z"
         id="path7813"
         inkscape:connector-curvature="0" />
    </pattern>
  </defs>
  <sodipodi:namedview
     id="base"
     pagecolor="#ffffff"
     bordercolor="#666666"
     borderopacity="1.0"
     inkscape:pageopacity="0.0"
     inkscape:pageshadow="2"
     inkscape:zoom="15.839192"
     inkscape:cx="15.111262"
     inkscape:cy="23.071271"
     inkscape:document-units="mm"
     inkscape:current-layer="layer1"
     showgrid="false"
     units="px"
     inkscape:snap-object-midpoints="true"
     inkscape:snap-midpoints="false"
     inkscape:object-paths="false"
     inkscape:window-width="1920"
     inkscape:window-height="1017"
     inkscape:window-x="-8"
     inkscape:window-y="-8"
     inkscape:window-maximized="1" />
  <metadata
     id="metadata7239">
    <rdf:RDF>
      <cc:Work
         rdf:about="">
        <dc:format>image/svg+xml</dc:format>
        <dc:type
           rdf:resource="http://purl.org/dc/dcmitype/StillImage" />
        <dc:title></dc:title>
      </cc:Work>
    </rdf:RDF>
  </metadata>
  <g
     inkscape:label="Layer 1"
     inkscape:groupmode="layer"
     id="layer1"
     transform="translate(0,-284.29996)">
    <g
       id="g8554"
       transform="matrix(1.4243526,0,0,1.424347,-1.1209542,-124.91012)">
      <path
         transform="matrix(0.26458333,0,0,0.26458333,0,286.41663)"
         id="path7787"
         d="M 19.824219,6.4121094 A 13.763328,13.763328 0 0 0 6.0605469,20.175781 13.763328,13.763328 0 0 0 19.824219,33.939453 13.763328,13.763328 0 0 0 33.587891,20.175781 13.763328,13.763328 0 0 0 19.824219,6.4121094 Z m 0,10.0390626 a 3.7249395,3.7249395 0 0 1 3.724609,3.724609 3.7249395,3.7249395 0 0 1 -3.724609,3.72461 3.7249395,3.7249395 0 0 1 -3.72461,-3.72461 3.7249395,3.7249395 0 0 1 3.72461,-3.724609 z"
         style="opacity:1;fill:#9d9d9d;fill-opacity:1;fill-rule:nonzero;stroke:#2c2c2c;stroke-width:0.55559057;stroke-linecap:square;stroke-miterlimit:4;stroke-dasharray:none;stroke-opacity:1;paint-order:normal"
         inkscape:connector-curvature="0" />
      <path
         sodipodi:nodetypes="ccccccc"
         inkscape:transform-center-y="-1.1085884"
         inkscape:transform-center-x="-2.2130913"
         inkscape:connector-curvature="0"
         id="path7798"
         d="m 8.6134131,290.47939 -0.4428442,-0.87815 -2.1274335,1.54442 c 0.069217,0.0846 0.125002,0.17935 0.1654278,0.28087 0.030441,0.0786 0.05146,0.16055 0.062624,0.24414 l 2.5872602,-0.32195 z"
         style="fill:#818181;fill-opacity:1;stroke:none;stroke-width:0.26547712px;stroke-linecap:butt;stroke-linejoin:miter;stroke-opacity:1" />
      <path
         inkscape:transform-center-y="1.0892532"
         inkscape:transform-center-x="2.2264341"
         sodipodi:nodetypes="ccccccc"
         style="fill:#818181;fill-opacity:1;stroke:none;stroke-width:0.26547712px;stroke-linecap:butt;stroke-linejoin:miter;stroke-opacity:1"
         d="m 1.8267668,292.98206 0.4092359,0.87298 2.1716164,-1.49713 c -0.067835,-0.0858 -0.1220646,-0.18136 -0.1608109,-0.28353 -0.029154,-0.0791 -0.048879,-0.16135 -0.058621,-0.24514 l -2.631739,0.25258 z"
         id="path8547"
         inkscape:connector-curvature="0" />
      <circle
         r="1.296122"
         cy="291.75479"
         cx="5.2451577"
         id="path7792"
         style="opacity:1;fill:none;fill-opacity:1;fill-rule:nonzero;stroke:#2c2c2c;stroke-width:0.061;stroke-linecap:square;stroke-miterlimit:4;stroke-dasharray:none;stroke-opacity:1;paint-order:normal" />
      <path
         transform="matrix(0.26458333,0,0,0.26458333,0,286.41663)"
         style="opacity:1;fill:none;fill-opacity:1;fill-rule:nonzero;stroke:#2c2c2c;stroke-width:0.55559057;stroke-linecap:square;stroke-miterlimit:4;stroke-dasharray:none;stroke-opacity:1;paint-order:normal"
         d="M 19.824219,6.4121094 A 13.763328,13.763328 0 0 0 6.0605469,20.175781 13.763328,13.763328 0 0 0 19.824219,33.939453 13.763328,13.763328 0 0 0 33.587891,20.175781 13.763328,13.763328 0 0 0 19.824219,6.4121094 Z m 0,10.0390626 a 3.7249395,3.7249395 0 0 1 3.724609,3.724609 3.7249395,3.7249395 0 0 1 -3.724609,3.72461 3.7249395,3.7249395 0 0 1 -3.72461,-3.72461 3.7249395,3.7249395 0 0 1 3.72461,-3.724609 z"
         id="path7809"
         inkscape:connector-curvature="0" />
    </g>
  </g>
</svg>
